<?xml version="1.0" encoding="iso-8859-1"?>
<!-- Generator: Adobe Illustrator 19.0.0, SVG Export Plug-In . SVG Version: 6.00 Build 0)  -->
<svg version="1.1" id="Layer_1" xmlns="http://www.w3.org/2000/svg" xmlns:xlink="http://www.w3.org/1999/xlink" x="0px" y="0px"
	 viewBox="0 0 496 496" style="enable-background:new 0 0 496 496;" xml:space="preserve">
<g>
	<g>
		<g>
			<path d="M400,312v-8c0-17.648-14.352-32-32-32h-16V0H144v213.88l-43.784,76.616c-13.4,23.44-15.328,51.264-5.304,76.344
				L146.584,496h131.56l28.168-105.68c3.768-14.096,5.68-28.656,5.68-43.288V344h56C385.648,344,400,329.648,400,312z M296,347.032
				c0,13.232-1.728,26.416-5.136,39.168L265.848,480H157.416l-47.64-119.104c-8.2-20.52-6.624-43.288,4.336-62.472L144,246.12V320
				h88v48h16V248c0-13.232,10.768-24,24-24s24,10.768,24,24V347.032z M272,208c-22.056,0-40,17.944-40,40v56h-72V16h176v288h-24v-56
				C312,225.944,294.056,208,272,208z M384,312c0,8.824-7.176,16-16,16h-56v-8h40v-32h16c8.824,0,16,7.176,16,16V312z"/>
			<polygon points="297.944,66.744 248,116.688 198.056,66.744 186.744,78.056 236.688,128 186.744,177.944 198.056,189.256 
				248,139.312 297.944,189.256 309.256,177.944 259.312,128 309.256,78.056 			"/>
			<path d="M112,0H0v136h112V0z M96,120H16V16h80V120z"/>
			<polygon points="37.128,94.152 56,78.416 74.872,94.152 85.128,81.848 68.504,68 85.128,54.152 74.872,41.848 56,57.584 
				37.128,41.848 26.872,54.152 43.496,68 26.872,81.848 			"/>
			<path d="M384,496h112V360H384V496z M400,376h80v104h-80V376z"/>
			<polygon points="458.872,401.848 440,417.584 421.128,401.848 410.872,414.152 427.496,428 410.872,441.848 421.128,454.152 
				440,438.416 458.872,454.152 469.128,441.848 452.504,428 469.128,414.152 			"/>
			<polygon points="413.656,245.656 424,235.312 434.344,245.656 445.656,234.344 435.312,224 445.656,213.656 434.344,202.344 
				424,212.688 413.656,202.344 402.344,213.656 412.688,224 402.344,234.344 			"/>
			<path d="M384,0v136h112V0H384z M480,120h-80V16h80V120z"/>
			<rect x="72" y="176" width="16" height="40"/>
			<rect x="72" y="232" width="16" height="16"/>
			<rect x="432" y="32" width="16" height="40"/>
			<rect x="432" y="88" width="16" height="16"/>
		</g>
	</g>
</g>
<g>
</g>
<g>
</g>
<g>
</g>
<g>
</g>
<g>
</g>
<g>
</g>
<g>
</g>
<g>
</g>
<g>
</g>
<g>
</g>
<g>
</g>
<g>
</g>
<g>
</g>
<g>
</g>
<g>
</g>
</svg>
