<?xml version="1.0" encoding="iso-8859-1"?>
<!-- Generator: Adobe Illustrator 19.0.0, SVG Export Plug-In . SVG Version: 6.00 Build 0)  -->
<svg version="1.1" id="Layer_1" xmlns="http://www.w3.org/2000/svg" xmlns:xlink="http://www.w3.org/1999/xlink" x="0px" y="0px"
	 viewBox="0 0 496 496" style="enable-background:new 0 0 496 496;" xml:space="preserve">
<g>
	<g>
		<g>
			<path d="M216,344c0,66.168,53.832,120,120,120s120-53.832,120-120s-53.832-120-120-120S216,277.832,216,344z M248.504,400
				c-8.464-13.176-14.08-28.344-15.856-44.672l30.6-24.488l33.816,11.272l6.392,31.944L284,400H248.504z M261.128,416h21.456
				l8.696,21.752C279.952,432.32,269.744,424.96,261.128,416z M360.608,444.936C352.704,446.864,344.488,448,336,448
				c-8.488,0-16.704-1.136-24.608-3.064L297.096,409.2L316,384h40l18.904,25.2L360.608,444.936z M312.832,339.376L336,322
				l23.168,17.376L353.448,368H318.56L312.832,339.376z M380.712,437.752L389.416,416h21.456
				C402.256,424.96,392.048,432.32,380.712,437.752z M423.496,400H388l-19.456-25.936l6.432-32.16l33.08-12.544l31.72,19.032
				C438.976,367.336,433.144,384.976,423.496,400z M427.064,293.872c5.936,10.744,9.928,22.664,11.752,35.288l-20.856-12.512
				L427.064,293.872z M416.224,277.888l-14.744,36.856l-32.2,12.216L344,308v-40l28.392-21.296
				C389.608,253.16,404.72,263.952,416.224,277.888z M336,240c5.704,0,11.256,0.584,16.712,1.472L336,254l-16.712-12.528
				C324.744,240.584,330.296,240,336,240z M299.608,246.704L328,268v40l-25.448,19.088l-31.264-10.424l-15.512-38.776
				C267.28,263.952,282.392,253.16,299.608,246.704z M232.456,334.992c1.28-14.8,5.632-28.728,12.48-41.112l9.432,23.584
				L232.456,334.992z"/>
			<path d="M472,48h-64V24c0-13.232-10.768-24-24-24h-8c-13.232,0-24,10.768-24,24v24H144V24c0-13.232-10.768-24-24-24h-8
				C98.768,0,88,10.768,88,24v24H24C10.768,48,0,58.768,0,72v400c0,13.232,10.768,24,24,24h448c13.232,0,24-10.768,24-24V72
				C496,58.768,485.232,48,472,48z M368,24c0-4.416,3.584-8,8-8h8c4.416,0,8,3.584,8,8v48c0,4.416-3.584,8-8,8h-8
				c-4.416,0-8-3.584-8-8V24z M104,24c0-4.416,3.584-8,8-8h8c4.416,0,8,3.584,8,8v48c0,4.416-3.584,8-8,8h-8c-4.416,0-8-3.584-8-8
				V24z M480,472c0,4.416-3.584,8-8,8H24c-4.416,0-8-3.584-8-8V136h464V472z M480,120H16V72c0-4.416,3.584-8,8-8h64v8
				c0,13.232,10.768,24,24,24h8c13.232,0,24-10.768,24-24v-8h208v8c0,13.232,10.768,24,24,24h8c13.232,0,24-10.768,24-24v-8h64
				c4.416,0,8,3.584,8,8V120z"/>
			<polygon points="128,464 156,464 208,394.664 208,373.336 156,304 128,304 128,344 112,344 112,232 272,232 272,216 96,216 
				96,360 144,360 144,320 148,320 192,378.664 192,389.336 148,448 144,448 144,408 48,408 48,168 272,168 272,152 32,152 32,424 
				128,424 			"/>
			<rect x="128" y="376" width="16" height="16"/>
			<rect x="96" y="376" width="16" height="16"/>
			<rect x="64" y="376" width="16" height="16"/>
			<rect x="64" y="344" width="16" height="16"/>
			<rect x="64" y="312" width="16" height="16"/>
			<rect x="64" y="280" width="16" height="16"/>
			<rect x="64" y="248" width="16" height="16"/>
			<rect x="64" y="216" width="16" height="16"/>
			<rect x="64" y="184" width="16" height="16"/>
			<rect x="96" y="184" width="16" height="16"/>
			<rect x="128" y="184" width="16" height="16"/>
			<rect x="160" y="184" width="16" height="16"/>
			<rect x="192" y="184" width="16" height="16"/>
			<rect x="224" y="184" width="16" height="16"/>
			<rect x="256" y="184" width="16" height="16"/>
		</g>
	</g>
</g>
<g>
</g>
<g>
</g>
<g>
</g>
<g>
</g>
<g>
</g>
<g>
</g>
<g>
</g>
<g>
</g>
<g>
</g>
<g>
</g>
<g>
</g>
<g>
</g>
<g>
</g>
<g>
</g>
<g>
</g>
</svg>
