<?xml version="1.0" encoding="iso-8859-1"?>
<!-- Generator: Adobe Illustrator 19.0.0, SVG Export Plug-In . SVG Version: 6.00 Build 0)  -->
<svg version="1.1" id="Layer_1" xmlns="http://www.w3.org/2000/svg" xmlns:xlink="http://www.w3.org/1999/xlink" x="0px" y="0px"
	 viewBox="0 0 496 496" style="enable-background:new 0 0 496 496;" xml:space="preserve">
<g>
	<g>
		<g>
			<path d="M120,24c0-13.232-10.768-24-24-24H48C34.768,0,24,10.768,24,24v88h96V24z M104,96H40V24c0-4.416,3.584-8,8-8h48
				c4.416,0,8,3.584,8,8V96z"/>
			<rect x="56" y="24" width="32" height="16"/>
			<path d="M296,24c0-13.232-10.768-24-24-24h-48c-13.232,0-24,10.768-24,24v88h96V24z M280,96h-64V24c0-4.416,3.584-8,8-8h48
				c4.416,0,8,3.584,8,8V96z"/>
			<rect x="232" y="24" width="32" height="16"/>
			<path d="M472,24c0-13.232-10.768-24-24-24h-48c-13.232,0-24,10.768-24,24v88h96V24z M456,96h-64V24c0-4.416,3.584-8,8-8h48
				c4.416,0,8,3.584,8,8V96z"/>
			<rect x="408" y="24" width="32" height="16"/>
			<polygon points="496,144 496,128 352,128 352,144 416,144 416,208 256,208 256,144 320,144 320,128 176,128 176,144 240,144 
				240,208 80,208 80,144 144,144 144,128 0,128 0,144 64,144 64,208 0,208 0,224 496,224 496,208 432,208 432,144 			"/>
			<path d="M0,496h496V240H0V496z M240,431.448c-31.52-3.96-56-30.872-56-63.448s24.48-59.488,56-63.448V431.448z M480,432h-32V304
				h32V432z M256,304.552c31.52,3.96,56,30.872,56,63.448s-24.48,59.488-56,63.448V304.552z M256,447.592
				c40.368-4.032,72-38.184,72-79.592s-31.632-75.568-72-79.592V256h224v32h-48v160h48v32H256V447.592z M16,304h32v128H16V304z
				 M16,448h48V288H16v-32h224v32.408c-40.368,4.032-72,38.184-72,79.592s31.632,75.568,72,79.592V480H16V448z"/>
		</g>
	</g>
</g>
<g>
</g>
<g>
</g>
<g>
</g>
<g>
</g>
<g>
</g>
<g>
</g>
<g>
</g>
<g>
</g>
<g>
</g>
<g>
</g>
<g>
</g>
<g>
</g>
<g>
</g>
<g>
</g>
<g>
</g>
</svg>
