<?xml version="1.0" encoding="iso-8859-1"?>
<!-- Generator: Adobe Illustrator 19.0.0, SVG Export Plug-In . SVG Version: 6.00 Build 0)  -->
<svg version="1.1" id="Layer_1" xmlns="http://www.w3.org/2000/svg" xmlns:xlink="http://www.w3.org/1999/xlink" x="0px" y="0px"
	 viewBox="0 0 496 496" style="enable-background:new 0 0 496 496;" xml:space="preserve">
<g>
	<g>
		<g>
			
				<rect x="197.517" y="187.998" transform="matrix(-0.3939 -0.9191 0.9191 -0.3939 137.6387 482.7455)" width="60.925" height="15.991"/>
			<rect x="271.11" y="112.004" transform="matrix(0.9762 0.2169 -0.2169 0.9762 33.3607 -63.9458)" width="73.76" height="16"/>
			
				<rect x="299.99" y="-12.869" transform="matrix(0.2167 0.9762 -0.9762 0.2167 264.684 -281.8644)" width="15.999" height="73.757"/>
			<path d="M496,312v-16h-80H224h-64V152v-8h54.248l8.248-33.008C232.56,108.144,240,98.968,240,88c0-10.416-6.712-19.216-16-22.528
				V46.528c9.288-3.312,16-12.112,16-22.528c0-13.232-10.768-24-24-24c-10.416,0-19.216,6.712-22.528,16H174.52
				C171.216,6.712,162.416,0,152,0s-19.216,6.712-22.528,16H110.52C107.216,6.712,98.416,0,88,0S68.784,6.712,65.472,16H46.528
				C43.216,6.712,34.416,0,24,0C10.768,0,0,10.768,0,24c0,10.416,6.712,19.216,16,22.528V65.48C6.712,68.784,0,77.584,0,88
				c0,10.968,7.44,20.144,17.504,22.992L25.752,144H80v32v120H0v16h80v16H0v16h80v16H0v16h80v16H0v16h80v16H0v16h80v40H0v16h80h8h56
				h16h336v-72h-32v-16h32v-16h-32h-8h-8v-16h48v-16h-48h-8h-8v-16h64v-16h-64h-8h-8v-16H496z M240,312h160v16H240V312z M416,344v16
				H224v-16H416z M224,312v16h-16h-48v-16H224z M160,392v-16h32v16h-8h-8H160z M176,408v16h-16v-16H176z M160,360v-16h48v16h-8h-8
				H160z M201.752,128H160v-16v-1.472c6.776-2.416,12.112-7.752,14.528-14.528h18.952c2.208,6.2,6.832,11.24,12.808,13.904
				L201.752,128z M216,96c-4.416,0-8-3.584-8-8s3.584-8,8-8s8,3.584,8,8S220.416,96,216,96z M216,16c4.416,0,8,3.584,8,8
				s-3.584,8-8,8s-8-3.584-8-8S211.584,16,216,16z M174.528,32h18.952c2.408,6.776,7.744,12.112,14.52,14.528V65.48
				c-6.776,2.416-12.112,7.752-14.528,14.528H174.52c-2.408-6.784-7.744-12.12-14.52-14.536V46.528
				C166.776,44.112,172.112,38.776,174.528,32z M152,16c4.416,0,8,3.584,8,8s-3.584,8-8,8s-8-3.584-8-8S147.584,16,152,16z
				 M110.528,32h18.952c2.408,6.776,7.744,12.112,14.52,14.528V65.48c-6.776,2.416-12.112,7.752-14.528,14.528H110.52
				c-2.408-6.784-7.744-12.12-14.52-14.536V46.528C102.776,44.112,108.112,38.776,110.528,32z M88,16c4.416,0,8,3.584,8,8
				s-3.584,8-8,8s-8-3.584-8-8S83.584,16,88,16z M24,16c4.416,0,8,3.584,8,8s-3.584,8-8,8s-8-3.584-8-8S19.584,16,24,16z M24,96
				c-4.416,0-8-3.584-8-8s3.584-8,8-8s8,3.584,8,8S28.416,96,24,96z M32,46.528C38.776,44.112,44.112,38.776,46.528,32H65.48
				c2.408,6.776,7.744,12.112,14.52,14.528V65.48C73.224,67.888,67.888,73.224,65.472,80H46.528
				C44.112,73.224,38.776,67.888,32,65.472V46.528z M80.008,128h-41.76l-4.528-18.096C39.696,107.24,44.312,102.2,46.528,96H65.48
				c2.416,6.776,7.752,12.112,14.528,14.528V128z M88,96c-4.416,0-8-3.584-8-8s3.584-8,8-8s8,3.584,8,8S92.416,96,88,96z M96,176
				l10.672,8L96,192V176z M96,240l10.672,8L96,256V240z M96,304l10.672,8L96,320V304z M96,368l10.672,8L96,384V368z M96,432
				l10.672,8L96,448V432z M144,480H96v-12l24-18l24,18V480z M144,448l-10.672-8L144,432V448z M144,412l-24,18l-24-18v-8l24-18l24,18
				V412z M144,384l-10.672-8L144,368V384z M144,348l-24,18l-24-18v-8l24-18l24,18V348z M144,320l-10.672-8L144,304V320z M144,284
				l-24,18l-24-18v-8l24-18l24,18V284z M144,256l-10.672-8L144,240V256z M144,220l-24,18l-24-18v-8l24-18l24,18V220z M144,192
				l-10.672-8L144,176V192z M144,152v4l-24,18l-24-18v-12h48V152z M144.008,112v16h-48v-17.472H96
				c6.776-2.416,12.112-7.752,14.528-14.528h18.952c2.416,6.776,7.752,12.112,14.528,14.528V112z M152,96c-4.416,0-8-3.584-8-8
				s3.584-8,8-8s8,3.584,8,8S156.416,96,152,96z M464,440h16v40H160v-40h16H464z M448,408v16H192v-16H448z M432,376v16H208v-16H432z
				"/>
		</g>
	</g>
</g>
<g>
</g>
<g>
</g>
<g>
</g>
<g>
</g>
<g>
</g>
<g>
</g>
<g>
</g>
<g>
</g>
<g>
</g>
<g>
</g>
<g>
</g>
<g>
</g>
<g>
</g>
<g>
</g>
<g>
</g>
</svg>
