<?xml version="1.0" encoding="iso-8859-1"?>
<!-- Generator: Adobe Illustrator 19.0.0, SVG Export Plug-In . SVG Version: 6.00 Build 0)  -->
<svg version="1.1" id="Layer_1" xmlns="http://www.w3.org/2000/svg" xmlns:xlink="http://www.w3.org/1999/xlink" x="0px" y="0px"
	 viewBox="0 0 496 496" style="enable-background:new 0 0 496 496;" xml:space="preserve">
<g>
	<g>
		<g>
			<path d="M472,72H360V24c0-13.232-10.768-24-24-24H160c-13.232,0-24,10.768-24,24v48H24C10.768,72,0,82.768,0,96v400h360h80h56V96
				C496,82.768,485.232,72,472,72z M152,24c0-4.416,3.584-8,8-8h176c4.416,0,8,3.584,8,8v48h-16V32H168v40h-16V24z M312,48v24H184
				V48H312z M112.12,480c-35.224,0-63.888-28.656-63.888-63.88s28.656-63.88,63.88-63.88S176,380.888,176,416.12
				S147.344,480,112.12,480z M304,480h-80v-16h80V480z M304,448h-80v-16h80V448z M304,416h-80v-16h80V416z M448,472
				c0,4.416-3.584,8-8,8h-80c-4.416,0-8-3.584-8-8v-24h96V472z M448,432h-96v-80h96V432z M448,336h-96v-8c0-13.232,10.768-24,24-24
				h48c13.232,0,24,10.768,24,24V336z M384,288v-24c0-4.416,3.584-8,8-8h16c4.416,0,8,3.584,8,8v24H384z M480,480h-17.472
				c0.896-2.512,1.472-5.184,1.472-8V328c0-19.312-13.768-35.472-32-39.192V264c0-13.232-10.768-24-24-24h-16
				c-13.232,0-24,10.768-24,24v24.808c-18.232,3.72-32,19.872-32,39.192v144c0,2.816,0.576,5.488,1.472,8H320v-96H208v96h-48.128
				C179.328,465.416,192,442.248,192,416.12c0-44.048-35.832-79.88-79.88-79.88c-44.048,0-79.88,35.832-79.88,79.88
				c0,26.128,12.672,49.296,32.128,63.88H16V192h201.136c3.576,13.768,15.992,24,30.864,24s27.288-10.232,30.864-24H480V480z
				 M232,184c0-8.824,7.176-16,16-16c8.824,0,16,7.176,16,16c0,8.824-7.176,16-16,16C239.176,200,232,192.824,232,184z M480,176
				H278.864c-3.576-13.768-15.992-24-30.864-24s-27.288,10.232-30.864,24H16V96c0-4.416,3.584-8,8-8h448c4.416,0,8,3.584,8,8V176z"
				/>
			<path d="M272,232h-48v40h-40v48h40v40h48v-40h40v-48h-40V232z M296,288v16h-40v40h-16v-40h-40v-16h40v-40h16v40H296z"/>
			<polygon points="392,416 408,416 408,400 424,400 424,384 408,384 408,368 392,368 392,384 376,384 376,400 392,400 			"/>
			<rect x="32" y="144" width="16" height="16"/>
			<rect x="64" y="144" width="16" height="16"/>
			<rect x="96" y="144" width="16" height="16"/>
			<rect x="128" y="144" width="16" height="16"/>
			<rect x="160" y="144" width="16" height="16"/>
			<rect x="192" y="144" width="16" height="16"/>
			<rect x="288" y="144" width="16" height="16"/>
			<rect x="320" y="144" width="16" height="16"/>
			<rect x="352" y="144" width="16" height="16"/>
			<rect x="384" y="144" width="16" height="16"/>
			<rect x="416" y="144" width="16" height="16"/>
			<rect x="448" y="144" width="16" height="16"/>
			<path d="M112.12,384.232c-17.576,0-31.88,14.304-31.88,31.88c0,17.576,14.296,31.888,31.88,31.888
				c17.584,0,31.88-14.304,31.88-31.88C144,398.544,129.696,384.232,112.12,384.232z M112.12,432c-8.76,0-15.88-7.128-15.88-15.88
				s7.128-15.88,15.88-15.88S128,407.36,128,416.12S120.872,432,112.12,432z"/>
		</g>
	</g>
</g>
<g>
</g>
<g>
</g>
<g>
</g>
<g>
</g>
<g>
</g>
<g>
</g>
<g>
</g>
<g>
</g>
<g>
</g>
<g>
</g>
<g>
</g>
<g>
</g>
<g>
</g>
<g>
</g>
<g>
</g>
</svg>
