<?xml version="1.0" encoding="iso-8859-1"?>
<!-- Generator: Adobe Illustrator 19.0.0, SVG Export Plug-In . SVG Version: 6.00 Build 0)  -->
<svg version="1.1" id="Layer_1" xmlns="http://www.w3.org/2000/svg" xmlns:xlink="http://www.w3.org/1999/xlink" x="0px" y="0px"
	 viewBox="0 0 496 496" style="enable-background:new 0 0 496 496;" xml:space="preserve">
<g>
	<g>
		<path d="M472,80h-87.8V24c0-13.232-10.768-24-24-24h-152c-13.232,0-24,10.768-24,24v64c0,13.232,10.768,24,24,24v109.84
			c0,3.088-1.8,5.928-4.592,7.24l-32.496,15.296C153.512,222.256,126.408,208,96,208c-52.936,0-96,43.064-96,96
			c0,52.936,43.064,96,96,96c8.792,0,17.264-1.288,25.36-3.512C136.968,409.12,156.24,416,176.576,416h2.144
			c7.592,0,15.056-1.04,22.336-2.96c0.16,8.168,1.552,16.44,4.448,24.552C217.976,472.528,251.28,496,288.376,496h2.144
			c15.472,0,30.712-4.096,44.088-11.84l101.472-58.752c22.152-12.824,35.92-36.696,35.92-62.304V192c13.232,0,24-10.768,24-24v-64
			C496,90.768,485.232,80,472,80z M200.2,88V24c0-4.416,3.584-8,8-8h152c4.416,0,8,3.584,8,8v56H320
			c-10.416,0-19.216,6.712-22.528,16H208.2C203.792,96,200.2,92.416,200.2,88z M165.368,264.304
			c5.376,9.352,8.944,19.856,10.152,31.072L158.768,283.6L165.368,264.304z M96,224c5.624,0,11.104,0.6,16.4,1.704L96,238
			l-16.4-12.296C84.896,224.6,90.376,224,96,224z M117.856,298.392L107.056,320H84.944l-10.8-21.608L96,282L117.856,298.392z
			 M61.344,232.008L88,252v16l-23.248,17.44l-15.736-5.12L38.24,248.8C44.84,241.896,52.656,236.208,61.344,232.008z
			 M26.632,264.312l6.6,19.288L16.48,295.384C17.688,284.16,21.264,273.664,26.632,264.312z M36.88,357.704l20.328-0.312
			l6.008,19.496C53.152,372.352,44.224,365.776,36.88,357.704z M58.96,341.36l-33.4,0.512c-4.472-8.28-7.448-17.456-8.76-27.152
			l27.272-19.184l12.832,4.168l13.168,26.344L58.96,341.36z M110.256,382.656C105.624,383.496,100.872,384,96,384
			s-9.624-0.504-14.264-1.344l-9.832-31.88L82.64,336h26.712l10.736,14.776L110.256,382.656z M104,268v-16l26.656-19.992
			c8.688,4.2,16.504,9.888,23.104,16.792l-10.776,31.528l-15.744,5.112L104,268z M135.088,299.704l12.832-4.168l27.272,19.184
			c-1.304,9.704-4.28,18.872-8.752,27.152l-33.4-0.512l-11.12-15.312L135.088,299.704z M134.792,357.4l20.328,0.312
			c-7.336,8.072-16.272,14.64-26.336,19.184L134.792,357.4z M202.608,395.848c-7.696,2.704-15.704,4.152-23.888,4.152h-2.144
			c-13.344,0-26.112-3.688-37.24-10.448C170.536,373.68,192,341.336,192,304c0-16.736-4.32-32.464-11.88-46.176l30.296-14.256
			c8.376-3.928,13.792-12.456,13.792-21.72V112H296v56c0,13.232,10.768,24,24,24v58.888c-27.792,7.192-48,32.656-48,61.936
			c0,5.376,0.728,10.624,2.024,15.736l-28.84,13.576C222.528,352.8,207.392,373,202.608,395.848z M320,267.624v34.224
			c0,3.088-1.8,5.928-4.592,7.232l-26.56,12.496c-0.528-2.864-0.848-5.784-0.848-8.752C288,292.296,301.248,274.288,320,267.624z
			 M456,363.104c0,19.912-10.712,38.48-27.944,48.456l-18.36,10.632c-6.264-8.288-9.696-18.32-9.696-28.856
			c0-26.472,21.528-48,48-48c2.704,0,5.368,0.288,8,0.728V363.104z M456,329.912c-2.648-0.328-5.312-0.576-8-0.576
			c-35.288,0-64,28.712-64,64c0,13.4,4.168,26.168,11.792,36.912l-69.2,40.072c-10.952,6.328-23.424,9.68-36.08,9.68h-2.144
			c-30.352,0-57.6-19.2-67.808-47.792c-10.6-29.68,2.904-62.176,31.432-75.6L322.2,323.56c8.384-3.928,13.8-12.448,13.8-21.72V192
			h120V329.912z M480,168c0,4.416-3.584,8-8,8H320c-4.416,0-8-3.584-8-8v-64c0-4.416,3.584-8,8-8h152c4.416,0,8,3.584,8,8V168z"/>
	</g>
</g>
<g>
</g>
<g>
</g>
<g>
</g>
<g>
</g>
<g>
</g>
<g>
</g>
<g>
</g>
<g>
</g>
<g>
</g>
<g>
</g>
<g>
</g>
<g>
</g>
<g>
</g>
<g>
</g>
<g>
</g>
</svg>
