<?xml version="1.0" encoding="iso-8859-1"?>
<!-- Generator: Adobe Illustrator 19.0.0, SVG Export Plug-In . SVG Version: 6.00 Build 0)  -->
<svg version="1.1" id="Layer_1" xmlns="http://www.w3.org/2000/svg" xmlns:xlink="http://www.w3.org/1999/xlink" x="0px" y="0px"
	 viewBox="0 0 496 496" style="enable-background:new 0 0 496 496;" xml:space="preserve">
<g>
	<g>
		<g>
			<rect x="148.004" y="78.367" transform="matrix(0.6143 0.7891 -0.7891 0.6143 158.0003 -75.2809)" width="16" height="91.218"/>
			<rect x="390.299" y="115.942" transform="matrix(0.7893 0.614 -0.614 0.7893 167.9427 -241.5287)" width="91.2" height="16"/>
			<path d="M312.152,323.464l66.192,66.192l11.312-11.312l-66.192-66.192C326.28,307.392,328,301.92,328,296
				c0-17.648-14.352-32-32-32c-5.92,0-11.392,1.72-16.152,4.536l-18.192-18.192l-11.312,11.312l18.192,18.192
				C265.72,284.608,264,290.08,264,296c0,17.648,14.352,32,32,32C301.92,328,307.392,326.28,312.152,323.464z M280,296
				c0-8.824,7.176-16,16-16c8.824,0,16,7.176,16,16c0,8.824-7.176,16-16,16C287.176,312,280,304.824,280,296z"/>
			<path d="M344,101.864V80h40V0H208v80h40v21.944c-65.776,16.504-120.48,66.128-142.008,132.088C45.888,244.512,0,296.936,0,360
				c0,70.576,57.424,128,128,128c24.704,0,47.72-7.152,67.304-19.328C225.816,486.504,260.488,496,296,496
				c110.28,0,200-89.72,200-200C496,202.264,431.168,123.424,344,101.864z M224,64V16h16v32h16V16h16v32h16V16h16v32h16V16h16v32h16
				V16h16v48H224z M328,80v18.592C317.576,96.904,306.896,96,296,96c-10.832,0-21.528,0.912-32,2.632V80H328z M128,248
				c8.208,0,16.192,0.944,23.904,2.632L128,269.76l-23.904-19.128C111.808,248.944,119.792,248,128,248z M239.424,371.392
				c-1.944,19.168-8.776,36.904-19.176,51.992l-47.84-6.832l-12.936-17.256l14.84-41.2l32.328-12.928L239.424,371.392z
				 M218.464,334.12l11.776-19.632c5.056,11.312,8.264,23.592,9.304,36.496L218.464,334.12z M256,360
				c0-60.648-42.44-111.464-99.152-124.6C180.84,180.376,235.568,144,296,144c83.816,0,152,68.184,152,152s-68.184,152-152,152
				c-22.016,0-43.872-4.816-63.752-14C247.144,413.08,256,387.576,256,360z M170.344,256.368
				c20.896,8.576,38.64,23.264,50.992,41.856l-18.808,31.344l-33.168,13.264L136,316.16v-32.32L170.344,256.368z M158.528,354.672
				l-13.04,36.208l-0.24,0.176l-35.528,0.808L97.352,354.76L128,330.24L158.528,354.672z M85.656,256.376L120,283.84v32.312
				l-33.88,27.104l-36.112-9.248l-15.84-34.96C46.536,280.072,64.456,265.064,85.656,256.376z M24.672,316.856l9.704,21.4
				l-17.952,13.44C17.328,339.44,20.12,327.704,24.672,316.856z M47.648,437.848l33.744-4.824l5.16,30.936
				C71.768,458.04,58.552,449.096,47.648,437.848z M83.328,416.584l-47.576,6.792c-10.368-15.048-17.192-32.72-19.16-51.824
				l29.432-22.056l35.76,9.16L95.168,398.8L83.328,416.584z M153.496,468.96C145.288,470.88,136.784,472,128,472
				c-8.368,0-16.496-0.992-24.352-2.744l-7.24-43.456l11.936-17.896l36.96-0.84l14.312,19.08L153.496,468.96z M170.424,463.6
				l4.36-30.544l33.56,4.792C197.688,448.856,184.816,457.68,170.424,463.6z M296,480c-30.24,0-59.84-7.432-86.328-21.536
				c4.36-3.624,8.376-7.608,12.224-11.768C244.84,457.992,270.304,464,296,464c92.632,0,168-75.368,168-168s-75.368-168-168-168
				c-68.12,0-129.64,41.824-155.296,104.64c-4.176-0.408-8.416-0.64-12.704-0.64c-1.512,0-2.984,0.176-4.48,0.224
				C149.952,160.904,219.184,112,296,112c101.464,0,184,82.536,184,184S397.464,480,296,480z"/>
		</g>
	</g>
</g>
<g>
</g>
<g>
</g>
<g>
</g>
<g>
</g>
<g>
</g>
<g>
</g>
<g>
</g>
<g>
</g>
<g>
</g>
<g>
</g>
<g>
</g>
<g>
</g>
<g>
</g>
<g>
</g>
<g>
</g>
</svg>
