<?xml version="1.0" encoding="iso-8859-1"?>
<!-- Generator: Adobe Illustrator 19.0.0, SVG Export Plug-In . SVG Version: 6.00 Build 0)  -->
<svg version="1.1" id="Layer_1" xmlns="http://www.w3.org/2000/svg" xmlns:xlink="http://www.w3.org/1999/xlink" x="0px" y="0px"
	 viewBox="0 0 496 496" style="enable-background:new 0 0 496 496;" xml:space="preserve">
<g>
	<g>
		<g>
			<path d="M355.68,307.08l14.088-8.132l-7.998-13.858l-14.108,8.143c-8.724-12.981-19.914-24.171-32.895-32.895l8.161-14.138
				l-13.858-7.998l-8.149,14.119c-13.711-6.766-28.89-10.987-44.922-12.048V224h16v-16h-16v-4.991L279.633,176H280v-0.42l32-36.572
				V0H184v139.008l32,36.572V176h0.367L240,203.009V208h-16v16h16v16.273c-16.041,1.061-31.23,5.287-44.947,12.06l-8.126-14.078
				l-13.858,7.998l8.139,14.101c-12.971,8.723-24.153,19.908-32.873,32.882l-14.11-8.144l-7.998,13.858l14.091,8.133
				c-6.765,13.71-10.985,28.887-12.045,44.917H112v16h16.273c1.061,16.037,5.285,31.221,12.055,44.935l-14.09,8.132l7.998,13.858
				l14.111-8.145c8.714,12.961,19.886,24.137,32.845,32.854l-8.15,14.12l13.858,7.998l8.136-14.095
				c13.722,6.778,28.916,11.007,44.964,12.069V496h16v-16.273c16.032-1.061,31.212-5.282,44.923-12.048l8.147,14.116l13.858-7.998
				l-8.159-14.135c12.973-8.72,24.158-19.903,32.88-32.874l14.124,8.152l7.998-13.858l-14.102-8.139
				c6.772-13.716,10.996-28.902,12.057-44.942H384v-16h-16.273C366.666,335.969,362.446,320.791,355.68,307.08z M248,187.848
				l-16-18.285V16h32v153.563L248,187.848z M296,132.992l-16,18.285V16h16V132.992z M200,132.992V16h16v135.277L200,132.992z
				 M248,464c-57.344,0-104-46.656-104-104s46.656-104,104-104s104,46.656,104,104S305.344,464,248,464z"/>
			<path d="M107.66,74.77l14.122,8.151l7.998-13.858l-14.102-8.139c6.767-13.711,10.988-28.892,12.049-44.924H144V0h-32v8
				c0,57.344-46.656,104-104,104H0v32h16v-16.273c16.032-1.061,31.213-5.282,44.924-12.049l8.141,14.105l13.858-7.998L74.77,107.66
				C87.748,98.936,98.937,87.748,107.66,74.77z"/>
			<path d="M80,0H64c0,35.288-28.712,64-64,64v16C44.112,80,80,44.112,80,0z"/>
			<path d="M384,8V0h-32v16h16.273c1.061,16.039,5.286,31.226,12.058,44.942l-14.074,8.123l7.998,13.858l14.096-8.136
				c8.718,12.966,19.897,24.145,32.863,32.863l-8.146,14.113l13.858,7.998l8.133-14.091c13.716,6.772,28.902,10.996,44.941,12.057
				V144h16v-32h-8C430.656,112,384,65.344,384,8z"/>
			<path d="M432,0h-16c0,44.112,35.888,80,80,80V64C460.712,64,432,35.288,432,0z"/>
			<path d="M272,288h-80v48h32v48h-32v48h112v-48h-32V288z M288,400v16h-80v-16h32v-80h-32v-16h48v96H288z"/>
		</g>
	</g>
</g>
<g>
</g>
<g>
</g>
<g>
</g>
<g>
</g>
<g>
</g>
<g>
</g>
<g>
</g>
<g>
</g>
<g>
</g>
<g>
</g>
<g>
</g>
<g>
</g>
<g>
</g>
<g>
</g>
<g>
</g>
</svg>
