<?xml version="1.0" encoding="iso-8859-1"?>
<!-- Generator: Adobe Illustrator 19.0.0, SVG Export Plug-In . SVG Version: 6.00 Build 0)  -->
<svg version="1.1" id="Layer_1" xmlns="http://www.w3.org/2000/svg" xmlns:xlink="http://www.w3.org/1999/xlink" x="0px" y="0px"
	 viewBox="0 0 496 496" style="enable-background:new 0 0 496 496;" xml:space="preserve">
<g>
	<g>
		<g>
			<path d="M112,66.176c-25.264,0-45.824,20.552-45.824,45.824S86.728,157.824,112,157.824c25.272,0,45.824-20.552,45.824-45.824
				C157.824,86.728,137.264,66.176,112,66.176z M112,141.824c-16.448,0-29.824-13.376-29.824-29.824S95.552,82.176,112,82.176
				S141.824,95.552,141.824,112S128.448,141.824,112,141.824z"/>
			<path d="M112,0C50.24,0,0,50.24,0,112s50.24,112,112,112s112-50.24,112-112v-1.288l272-48V0H112z M480,49.288l-272,48V112
				c0,52.936-43.064,96-96,96c-52.936,0-96-43.064-96-96c0-52.936,43.064-96,96-96c21.624,0,42.04,7.016,59.04,20.296
				c15.248,11.904,26.432,27.872,32.328,46.168L218.6,77.56c-6.888-21.36-19.936-39.992-37.72-53.872
				c-3.632-2.84-7.44-5.344-11.32-7.688H480V49.288z"/>
			<rect x="304" y="24" width="160" height="16"/>
			<rect x="272" y="24" width="16" height="16"/>
			<path d="M384,338.176c-25.264,0-45.824,20.552-45.824,45.824c0,25.272,20.552,45.824,45.824,45.824
				c25.272,0,45.824-20.552,45.824-45.824C429.824,358.728,409.264,338.176,384,338.176z M384,413.824
				c-16.448,0-29.824-13.376-29.824-29.824s13.376-29.824,29.824-29.824s29.824,13.376,29.824,29.824S400.448,413.824,384,413.824z"
				/>
			<path d="M384,272c-61.76,0-112,50.24-112,112v1.288l-272,48V496h384c61.76,0,112-50.24,112-112S445.76,272,384,272z M384,480
				c-21.624,0-42.04-7.016-59.04-20.296c-15.248-11.904-26.432-27.872-32.328-46.168L277.4,418.44
				c6.888,21.36,19.936,39.992,37.72,53.872c3.632,2.84,7.44,5.344,11.328,7.688H16v-33.288l272-48V384c0-52.936,43.064-96,96-96
				c52.936,0,96,43.064,96,96C480,436.936,436.936,480,384,480z"/>
			<rect x="32" y="456" width="160" height="16"/>
			<rect x="208" y="456" width="16" height="16"/>
			<path d="M128,320c-13.232,0-24,10.768-24,24s10.768,24,24,24s24-10.768,24-24v-90.248l-80,20v63.728
				c-2.512-0.904-5.184-1.48-8-1.48c-13.232,0-24,10.768-24,24s10.768,24,24,24s24-10.768,24-24v-73.752l48-12v47.224
				C133.488,320.576,130.816,320,128,320z M128,352c-4.416,0-8-3.584-8-8c0-4.416,3.584-8,8-8s8,3.584,8,8
				C136,348.416,132.416,352,128,352z M64,368c-4.416,0-8-3.584-8-8c0-4.416,3.584-8,8-8s8,3.584,8,8C72,364.416,68.416,368,64,368z
				"/>
			
				<rect x="22.39" y="228.033" transform="matrix(-0.6247 -0.7809 0.7809 -0.6247 -106.3242 420.9634)" width="51.225" height="16"/>
			<rect x="8" y="272" width="40" height="16"/>
			<rect x="14.457" y="312.008" transform="matrix(0.9285 -0.3714 0.3714 0.9285 -116.2731 36.2571)" width="43.081" height="16"/>
			<path d="M400,176c-13.232,0-24,10.768-24,24s10.768,24,24,24s24-10.768,24-24v-90.248l-80,20v63.728
				c-2.512-0.904-5.184-1.48-8-1.48c-13.232,0-24,10.768-24,24s10.768,24,24,24s24-10.768,24-24v-73.752l48-12v47.224
				C405.488,176.576,402.816,176,400,176z M400,208c-4.416,0-8-3.584-8-8s3.584-8,8-8c4.416,0,8,3.584,8,8S404.416,208,400,208z
				 M336,224c-4.416,0-8-3.584-8-8s3.584-8,8-8c4.416,0,8,3.584,8,8S340.416,224,336,224z"/>
			
				<rect x="452.033" y="68.673" transform="matrix(-0.5146 -0.8574 0.8574 -0.5146 617.8919 533.7818)" width="16" height="46.647"/>
			<rect x="448" y="128" width="40" height="16"/>
			
				<rect x="451.988" y="156.64" transform="matrix(-0.5146 0.8574 -0.8574 -0.5146 851.0088 -121.827)" width="16" height="46.647"/>
		</g>
	</g>
</g>
<g>
</g>
<g>
</g>
<g>
</g>
<g>
</g>
<g>
</g>
<g>
</g>
<g>
</g>
<g>
</g>
<g>
</g>
<g>
</g>
<g>
</g>
<g>
</g>
<g>
</g>
<g>
</g>
<g>
</g>
</svg>
