<?xml version="1.0" encoding="iso-8859-1"?>
<!-- Generator: Adobe Illustrator 19.0.0, SVG Export Plug-In . SVG Version: 6.00 Build 0)  -->
<svg version="1.1" id="Layer_1" xmlns="http://www.w3.org/2000/svg" xmlns:xlink="http://www.w3.org/1999/xlink" x="0px" y="0px"
	 viewBox="0 0 496 496" style="enable-background:new 0 0 496 496;" xml:space="preserve">
<g>
	<g>
		<path d="M272,249.184v-75.528l136-47.992V98.456L273.456,48H256v200.2c-2.664-0.08-5.32-0.2-8-0.2s-5.336,0.12-8,0.2V0H64v112h160
			v137.184C98.472,261.296,0,367.352,0,496h16c0-1.368,0.08-2.72,0.104-4.08l56.392-42.288L149.784,496h13.344L248,417.832
			L332.872,496h13.344l77.696-46.624l55.784,34.864c0.2,3.904,0.304,7.816,0.304,11.76h16C496,367.352,397.528,261.296,272,249.184z
			 M272,64.544l120,45v4.8l-120,42.352V64.544z M80,16h144v16H80V16z M80,96V80h112V64H80V48h144v16h-16v16h16v16H80z
			 M17.368,470.976c3.368-31.256,12.968-60.664,27.536-86.968l17.68,53.056L17.368,470.976z M240,403.448L156.872,480h-2.656
			l-75.56-45.336l-22.832-68.488c29.976-44.224,74.816-77.544,127.264-92.864L240,316V403.448z M203.176,268.384
			C217.688,265.536,232.664,264,248,264s30.312,1.536,44.824,4.384L248,302L203.176,268.384z M417.344,434.664L341.784,480h-2.656
			L256,403.448V316l56.912-42.688c52.448,15.32,97.288,48.64,127.264,92.864L417.344,434.664z M433.576,436.552l17.512-52.544
			c13.504,24.384,22.704,51.44,26.664,80.16L433.576,436.552z"/>
	</g>
</g>
<g>
</g>
<g>
</g>
<g>
</g>
<g>
</g>
<g>
</g>
<g>
</g>
<g>
</g>
<g>
</g>
<g>
</g>
<g>
</g>
<g>
</g>
<g>
</g>
<g>
</g>
<g>
</g>
<g>
</g>
</svg>
