<?xml version="1.0" encoding="iso-8859-1"?>
<!-- Generator: Adobe Illustrator 19.0.0, SVG Export Plug-In . SVG Version: 6.00 Build 0)  -->
<svg version="1.1" id="Layer_1" xmlns="http://www.w3.org/2000/svg" xmlns:xlink="http://www.w3.org/1999/xlink" x="0px" y="0px"
	 viewBox="0 0 496 496" style="enable-background:new 0 0 496 496;" xml:space="preserve">
<g>
	<g>
		<g>
			<path d="M0,496h496V240H0V496z M240,431.448c-31.52-3.96-56-30.872-56-63.448s24.48-59.488,56-63.448V431.448z M480,440h-32v-16
				h16v-16h-16v-16h16v-16h-16v-16h16v-16h-16v-16h16v-16h-16v-16h32V440z M256,304.552c31.52,3.96,56,30.872,56,63.448
				s-24.48,59.488-56,63.448V304.552z M256,447.592c40.368-4.032,72-38.184,72-79.592s-31.632-75.568-72-79.592V256h224v24h-48v176
				h48v24H256V447.592z M16,296h32v16H32v16h16v16H32v16h16v16H32v16h16v16H32v16h16v8H16V296z M16,448h48V280H16v-24h224v32.408
				c-40.368,4.032-72,38.184-72,79.592s31.632,75.568,72,79.592V480H16V448z"/>
			<path d="M496,16V0h-88H88H0v16h88v16H72H0v16h72v16H56H0v16h56v16H40H0v16h40v16H24H0v16h24v16H0v64h496v-64h-24v-16h24v-16h-24
				h-16v-16h40V96h-40h-16V80h56V64h-56h-16V48h72V32h-72h-16V16H496z M104,16h288v16H104V16z M88,48h320v16H88V48z M472,176h8v32
				H16v-32h8H472z M456,144v16H40v-16H456z M440,112v16H56v-16H440z M424,80v16H72V80H424z"/>
		</g>
	</g>
</g>
<g>
</g>
<g>
</g>
<g>
</g>
<g>
</g>
<g>
</g>
<g>
</g>
<g>
</g>
<g>
</g>
<g>
</g>
<g>
</g>
<g>
</g>
<g>
</g>
<g>
</g>
<g>
</g>
<g>
</g>
</svg>
