<?xml version="1.0" encoding="iso-8859-1"?>
<!-- Generator: Adobe Illustrator 19.0.0, SVG Export Plug-In . SVG Version: 6.00 Build 0)  -->
<svg version="1.1" id="Layer_1" xmlns="http://www.w3.org/2000/svg" xmlns:xlink="http://www.w3.org/1999/xlink" x="0px" y="0px"
	 viewBox="0 0 496 496" style="enable-background:new 0 0 496 496;" xml:space="preserve">
<g>
	<g>
		<g>
			<path d="M262.144,16c11.008,0,20.208,7.888,21.88,18.776l5.952,38.704c4.264,27.696,16.992,52.808,36.8,72.608l23.088,23.088
				c9.56,9.56,22.272,14.824,35.792,14.824H496v-16H385.656c-9.248,0-17.944-3.6-24.488-10.144l-23.088-23.088
				c-17.384-17.384-28.552-39.424-32.296-63.736l-5.952-38.696C296.96,13.6,281.112,0,262.144,0C241.112,0,224,17.112,224,38.144
				v7.72c0,1.808,0.136,3.616,0.384,5.392l4.528,31.704c-11.36-6.72-23.752-11.808-36.912-15V48h16V0h-96v48h16v19.84
				c-7.808,1.888-15.4,4.472-22.704,7.68l-10.64-15.96l-13.312,8.872l9.624,14.432C75.144,92.192,61.192,104.752,50.08,120H24
				c-13.232,0-24,10.768-24,24v16c0,6.168,2.408,11.744,6.24,16C2.408,180.256,0,185.832,0,192v16c0,6.168,2.408,11.744,6.24,16
				C2.408,228.256,0,233.832,0,240v16c0,6.168,2.408,11.744,6.24,16C2.408,276.256,0,281.832,0,288v16v192h496V304v-8v-8H366.704
				l-53.528,17.84c-12.256,4.088-25.024,6.16-37.952,6.16h-38.248C272.584,287.448,296,246.424,296,200
				c0-41.984-19.144-79.576-49.136-104.536l-6.64-46.48c-0.152-1.04-0.224-2.088-0.224-3.128v-7.712
				C240,25.928,249.928,16,262.144,16z M128,16h64v16h-64V16z M176,48v17.024C170.744,64.408,165.424,64,160,64
				c-5.384,0-10.72,0.336-16,0.96V48H176z M16,144c0-4.416,3.584-8,8-8h56c8.824,0,16,7.176,16,16c0,8.824-7.176,16-16,16H24
				c-4.416,0-8-3.584-8-8V144z M16,192c0-4.416,3.584-8,8-8h56c8.824,0,16,7.176,16,16c0,8.824-7.176,16-16,16H24
				c-4.416,0-8-3.584-8-8V192z M16,240c0-4.416,3.584-8,8-8h56c8.824,0,16,7.176,16,16c0,8.824-7.176,16-16,16H24
				c-4.416,0-8-3.584-8-8V240z M16,288c0-4.416,3.584-8,8-8h56c8.824,0,16,7.176,16,16c0,8.824-7.176,16-16,16H24
				c-4.416,0-8-3.584-8-8V288z M16,326.528c2.512,0.896,5.184,1.472,8,1.472h56v112H16V326.528z M240,480H16v-24h80V323.552
				c1.048-0.616,2.072-1.256,3.04-1.976C117.872,331.016,138.768,336,160,336c10.416,0,20.528-1.288,30.28-3.52
				c-4.064,8.496-6.28,17.816-6.28,27.52c0,32.576,24.48,59.488,56,63.448V480z M100.944,176c6.72-5.872,11.056-14.392,11.056-24
				c0-7.68-2.832-14.64-7.352-20.16C120.344,119.072,139.808,112,160,112c48.52,0,88,39.48,88,88s-39.48,88-88,88
				c-20.192,0-39.656-7.072-55.352-19.84c4.52-5.52,7.352-12.48,7.352-20.16c0-9.608-4.336-18.128-11.056-24
				c6.72-5.872,11.056-14.392,11.056-24C112,190.392,107.664,181.872,100.944,176z M416,304h64v136h-64V304z M256,328h19.224
				c2.728,0,5.44-0.168,8.144-0.328C291.504,336.544,296,347.896,296,360c0,23.736-17.336,43.448-40,47.28V328z M256,423.448
				c31.52-3.96,56-30.872,56-63.448c0-12.528-3.616-24.456-10.288-34.712c5.576-1.112,11.104-2.464,16.52-4.272L369.296,304H400v152
				h80v24H256V423.448z M240,328v79.28c-22.664-3.824-40-23.536-40-47.28c0-11.952,4.384-23.176,12.328-32H240z M280,200
				c0,66.168-53.832,120-120,120c-17.576,0-34.888-3.904-50.68-11.256c1.704-3.912,2.68-8.208,2.68-12.744
				c0-1.416-0.24-2.776-0.416-4.144C126.432,299.728,142.984,304,160,304c57.344,0,104-46.656,104-104S217.344,96,160,96
				c-25.304,0-49.68,9.296-68.752,26.144C87.736,120.816,83.976,120,80,120h-9.416C93.208,94.728,125.608,80,160,80
				C226.168,80,280,133.832,280,200z"/>
			<path d="M160,224c10.416,0,19.216-6.712,22.528-16H232v-16h-49.472c-3.312-9.288-12.112-16-22.528-16c-13.232,0-24,10.768-24,24
				S146.768,224,160,224z M160,192c4.416,0,8,3.584,8,8s-3.584,8-8,8s-8-3.584-8-8S155.584,192,160,192z"/>
		</g>
	</g>
</g>
<g>
</g>
<g>
</g>
<g>
</g>
<g>
</g>
<g>
</g>
<g>
</g>
<g>
</g>
<g>
</g>
<g>
</g>
<g>
</g>
<g>
</g>
<g>
</g>
<g>
</g>
<g>
</g>
<g>
</g>
</svg>
