<?xml version="1.0" encoding="iso-8859-1"?>
<!-- Generator: Adobe Illustrator 19.0.0, SVG Export Plug-In . SVG Version: 6.00 Build 0)  -->
<svg version="1.1" id="Layer_1" xmlns="http://www.w3.org/2000/svg" xmlns:xlink="http://www.w3.org/1999/xlink" x="0px" y="0px"
	 viewBox="0 0 496 496" style="enable-background:new 0 0 496 496;" xml:space="preserve">
<g>
	<g>
		<g>
			<polygon points="400,112 400,80 384,80 384,96 379.312,96 339.312,56 379.312,16 384,16 384,32 400,32 400,0 372.688,0 
				316.688,56 372.688,112 			"/>
			<path d="M346.784,160l-1.304,6.408c-5.512,27.192-29.688,46.928-57.48,46.928s-51.968-19.736-57.48-46.928L229.216,160H208V80h48
				V0h-95.344l-1.296,6.408C156.344,21.232,143.16,32,128,32c-15.16,0-28.344-10.768-31.36-25.592L95.344,0H0v80h48v128h32v72h80
				v216h256V280h80V160H346.784z M80,192H64V64H16V16h16v32h16V16h34.744c6.68,18.88,24.768,32,45.256,32
				c20.488,0,38.576-13.12,45.256-32H208v32h16V16h16v48h-48v96H80V192z M480,264h-32v-16h-16v16h-32v216H176V264h-32v-16h-16v16H96
				v-88h32v56h16v-56h72.44c9.312,31.264,38.416,53.336,71.56,53.336s62.248-22.072,71.56-53.336H432v56h16v-56h32V264z"/>
			<polygon points="96,80 144,80 144,96 96,96 96,144 160,144 160,128 112,128 112,112 160,112 160,64 96,64 			"/>
			<polygon points="248,360 312,360 312,408 248,408 248,424 328,424 328,344 264,344 264,296 328,296 328,280 248,280 			"/>
			<rect x="384" y="48" width="16" height="16"/>
			<rect x="416" y="48" width="16" height="16"/>
			<rect x="448" y="48" width="16" height="16"/>
			<rect x="448" y="80" width="16" height="16"/>
			<rect x="448" y="112" width="16" height="16"/>
			<polygon points="64,328 64,360 80,360 80,344 84.688,344 124.688,384 84.688,424 80,424 80,408 64,408 64,440 91.312,440 
				147.312,384 91.312,328 			"/>
			<rect x="64" y="376" width="16" height="16"/>
			<rect x="32" y="376" width="16" height="16"/>
			<rect y="376" width="16" height="16"/>
			<rect y="344" width="16" height="16"/>
			<rect y="312" width="16" height="16"/>
		</g>
	</g>
</g>
<g>
</g>
<g>
</g>
<g>
</g>
<g>
</g>
<g>
</g>
<g>
</g>
<g>
</g>
<g>
</g>
<g>
</g>
<g>
</g>
<g>
</g>
<g>
</g>
<g>
</g>
<g>
</g>
<g>
</g>
</svg>
