<?xml version="1.0" encoding="iso-8859-1"?>
<!-- Generator: Adobe Illustrator 19.0.0, SVG Export Plug-In . SVG Version: 6.00 Build 0)  -->
<svg version="1.1" id="Layer_1" xmlns="http://www.w3.org/2000/svg" xmlns:xlink="http://www.w3.org/1999/xlink" x="0px" y="0px"
	 viewBox="0 0 497.568 497.568" style="enable-background:new 0 0 497.568 497.568;" xml:space="preserve">
<g>
	<g>
		<g>
			<path d="M321.568,136.784c0-13.232-10.768-24-24-24H160.36c-5.496,0-10.816,1.104-15.832,3.264l-64.216,20.736H1.568v16h80
				l68.256-21.632l0.8-0.304c3.072-1.368,6.352-2.064,9.736-2.064h137.208c4.416,0,8,3.584,8,8s-3.584,8-8,8h-66.664
				c-5.168,0-10.28,1.712-14.4,4.808l-51.208,38.4c-4.12,3.096-9.232,4.8-14.392,4.8h-18.688c-1.32,0-2.64-0.112-3.944-0.328
				l-46.832-7.808L0,200.944l3.144,15.688l78.56-15.712l43.944,7.32c2.168,0.36,4.384,0.544,6.568,0.544h18.688
				c8.6,0,17.128-2.84,23.992-8l51.208-38.4c1.376-1.032,3.08-1.6,4.8-1.6h66.664C310.8,160.784,321.568,150.016,321.568,136.784z"
				/>
			<path d="M325.376,418.44c-24.752,3.536-50.032-6.096-66.168-25.168c-0.792-1.536-1.064-3.288-0.784-4.992L272.136,306
				l-6.568-89.864v-5.592c0-5.384,4.376-9.76,9.76-9.76c4.6,0,8.52,3.152,9.52,7.64l12.904,58.096l29.256,80.64
				c2.848,7.856,9.44,13.568,17.608,15.28l143.296,30.168l3.296-15.656l-143.296-30.168c-2.72-0.568-4.912-2.48-5.864-5.096
				l-28.784-79.152l-12.8-57.592c-2.648-11.872-12.984-20.16-25.136-20.16c-14.208,0-25.76,11.552-25.76,25.76v5.592
				c0,0.624,0.024,1.256,0.072,1.88l6.408,87.248l-13.4,80.392c-0.936,5.608,0.168,11.392,3.088,16.288l0.712,1
				c19.632,23.68,50.696,35.68,81.192,31.336l9.064-1.296l150.104,55.304l5.528-15.016L338.44,416.576L325.376,418.44z"/>
			<polygon points="121.568,328.784 105.568,328.784 105.568,392.784 177.568,392.784 177.568,376.784 121.568,376.784 			"/>
			<path d="M113.568,272.784c-61.76,0-112,50.24-112,112s50.24,112,112,112s112-50.24,112-112S175.328,272.784,113.568,272.784z
				 M113.568,480.784c-52.936,0-96-43.064-96-96c0-52.936,43.064-96,96-96c52.936,0,96,43.064,96,96
				C209.568,437.72,166.504,480.784,113.568,480.784z"/>
			<polygon points="425.568,84.096 425.568,40.784 409.568,40.784 409.568,77.472 379.912,107.128 391.224,118.44 			"/>
			<path d="M417.568,160.784c44.112,0,80-35.888,80-80s-35.888-80-80-80s-80,35.888-80,80S373.456,160.784,417.568,160.784z
				 M417.568,16.784c35.288,0,64,28.712,64,64s-28.712,64-64,64c-35.288,0-64-28.712-64-64S382.28,16.784,417.568,16.784z"/>
			<path d="M177.568,48.784c30.096,0,55.76,20.464,62.408,49.76L255.584,95c-8.32-36.632-40.408-62.216-78.016-62.216
				c-44.112,0-80,35.888-80,80h16C113.568,77.496,142.28,48.784,177.568,48.784z"/>
			<rect x="169.568" y="72.784" width="16" height="24"/>
			<path d="M433.568,288.784c-28.112,0-53.336,18.8-61.344,45.72l15.328,4.56c6.008-20.184,24.928-34.28,46.016-34.28
				c26.472,0,48,21.528,48,48h16C497.568,317.496,468.856,288.784,433.568,288.784z"/>
			<rect x="425.568" y="320.784" width="16" height="32"/>
		</g>
	</g>
</g>
<g>
</g>
<g>
</g>
<g>
</g>
<g>
</g>
<g>
</g>
<g>
</g>
<g>
</g>
<g>
</g>
<g>
</g>
<g>
</g>
<g>
</g>
<g>
</g>
<g>
</g>
<g>
</g>
<g>
</g>
</svg>
