<?xml version="1.0" encoding="iso-8859-1"?>
<!-- Generator: Adobe Illustrator 19.0.0, SVG Export Plug-In . SVG Version: 6.00 Build 0)  -->
<svg version="1.1" id="Layer_1" xmlns="http://www.w3.org/2000/svg" xmlns:xlink="http://www.w3.org/1999/xlink" x="0px" y="0px"
	 viewBox="0 0 496 496" style="enable-background:new 0 0 496 496;" xml:space="preserve">
<g>
	<g>
		<g>
			<path d="M128,496h112v-80h16v80h112V320H128V496z M352,480h-80v-16h80V480z M144,336h208v112h-80v-48h-48v48h-80V336z M144,464
				h80v16h-80V464z"/>
			<polygon points="208,96 176,96 176,112 192,112 192,216 168,216 168,232 232,232 232,216 208,216 			"/>
			<path d="M248,232h80V96h-80V232z M264,112h48v104h-48V112z"/>
			<path d="M444.392,140.176l-14.016,7.72c6.344,11.528,11.544,23.656,15.576,36.176l-42.856,57.136L368,252.904V108.856
				l30.256,38.056l69.352-49.36L404.6,20.536l-0.008-0.008C393.912,7.488,378.12,0,361.248,0h-65.312l-8.272,0.84L288,9.168
				c0,22.056-17.944,40-40,40c-22.056,0-40-17.944-40-39.904L208.392,0h-73.64C117.888,0,102.088,7.488,91.4,20.536l-63,77.008
				l69.12,49.368L128,108.808v144.096l-35.096-11.696L50.048,184.08c4.032-12.528,9.24-24.672,15.6-36.216l-14.016-7.72
				C33.552,172.976,24,210.272,24,248c0,63.624,27.2,124.472,74.632,166.928l10.672-11.92
				C81.576,378.192,61.32,346.6,50.096,311.872l40.848-54.464L128,269.76V304h240v-34.24l37.056-12.352l40.848,54.464
				c-11.088,34.296-31,65.552-58.176,90.208l10.752,11.84C445.2,371.528,472,311.056,472,248
				C472,210.296,462.456,173.016,444.392,140.176z M44.8,292.272C41.648,277.84,40,263.008,40,248
				c0-14.912,1.704-29.736,4.84-44.216L78,248L44.8,292.272z M444.392,94.448l-43.056,30.64l-7.928-9.976l42.848-30.608
				L444.392,94.448z M94.488,125.088l-42.88-30.632l8.144-9.952l42.768,30.552L94.488,125.088z M352,88v200H144V88h-19.84
				l-11.64,14.544L69.896,72.096l33.888-41.424C111.416,21.344,122.704,16,134.752,16h57.664C195.8,43.664,219.44,65.168,248,65.168
				S300.2,43.664,303.584,16h57.664c12.048,0,23.336,5.344,30.96,14.664l33.896,41.432l-42.664,30.472L371.856,88H352z M418,248
				l33.16-44.216c3.136,14.48,4.84,29.304,4.84,44.216c0,14.992-1.656,29.816-4.808,44.256L418,248z"/>
		</g>
	</g>
</g>
<g>
</g>
<g>
</g>
<g>
</g>
<g>
</g>
<g>
</g>
<g>
</g>
<g>
</g>
<g>
</g>
<g>
</g>
<g>
</g>
<g>
</g>
<g>
</g>
<g>
</g>
<g>
</g>
<g>
</g>
</svg>
