<?xml version="1.0" encoding="iso-8859-1"?>
<!-- Generator: Adobe Illustrator 19.0.0, SVG Export Plug-In . SVG Version: 6.00 Build 0)  -->
<svg version="1.1" id="Layer_1" xmlns="http://www.w3.org/2000/svg" xmlns:xlink="http://www.w3.org/1999/xlink" x="0px" y="0px"
	 viewBox="0 0 496 496" style="enable-background:new 0 0 496 496;" xml:space="preserve">
<g>
	<g>
		<g>
			<path d="M248,256c70.576,0,128-57.424,128-128S318.576,0,248,0S120,57.424,120,128S177.424,256,248,256z M167.648,205.848
				l33.744-4.824l5.16,30.936C191.768,226.04,178.552,217.096,167.648,205.848z M273.496,236.96C265.288,238.88,256.784,240,248,240
				c-8.368,0-16.496-0.992-24.352-2.744l-7.24-43.456l11.936-17.896l36.96-0.84l14.312,19.08L273.496,236.96z M217.4,129.936
				L248,99.312l30.496,30.496l-12.44,28.656l-0.792,0.6l-35.888,0.816L217.4,129.936z M290.424,231.6l4.36-30.544l33.56,4.792
				C317.688,216.856,304.816,225.68,290.424,231.6z M340.248,191.376l-47.84-6.832l-12.816-17.088l14.728-33.92l33.024-19.816
				l32.08,25.664C357.48,158.552,350.648,176.288,340.248,191.376z M359.544,118.984l-21.08-16.864l11.776-19.632
				C355.296,93.8,358.512,106.08,359.544,118.984z M341.336,66.224l-19.168,31.944l-32.928,19.76L256,84.688V51.84l34.344-27.472
				C311.24,32.944,328.984,47.632,341.336,66.224z M248,16c8.208,0,16.192,0.944,23.904,2.632L248,37.76l-23.904-19.128
				C231.808,16.944,239.792,16,248,16z M205.656,24.376L240,51.84v32.84l-33.792,33.784l-35.888-15.76L154.16,67.04
				C166.536,48.072,184.456,33.064,205.656,24.376z M144.672,84.856l9.704,21.4l-17.952,13.44
				C137.328,107.44,140.12,95.704,144.672,84.856z M136.6,139.552l28.76-21.544l36.432,16l13.224,33.056l-11.68,17.52l-47.576,6.792
				C145.392,176.328,138.568,158.656,136.6,139.552z"/>
			<path d="M336,352v-80H160v80H0v144h496V352H336z M480,480H16V368h160v-80h144v80h160V480z"/>
			<polygon points="232,312 248,312 248,368 264,368 264,296 232,296 			"/>
			<polygon points="440,448 400,448 400,437.416 440,421.416 440,384 384,384 384,408 400,408 400,400 424,400 424,410.584 
				384,426.584 384,464 440,464 			"/>
			<polygon points="56,400 96,400 96,416 80,416 80,432 96,432 96,448 56,448 56,464 112,464 112,384 56,384 			"/>
		</g>
	</g>
</g>
<g>
</g>
<g>
</g>
<g>
</g>
<g>
</g>
<g>
</g>
<g>
</g>
<g>
</g>
<g>
</g>
<g>
</g>
<g>
</g>
<g>
</g>
<g>
</g>
<g>
</g>
<g>
</g>
<g>
</g>
</svg>
