<?xml version="1.0" encoding="iso-8859-1"?>
<!-- Generator: Adobe Illustrator 19.0.0, SVG Export Plug-In . SVG Version: 6.00 Build 0)  -->
<svg version="1.1" id="Layer_1" xmlns="http://www.w3.org/2000/svg" xmlns:xlink="http://www.w3.org/1999/xlink" x="0px" y="0px"
	 viewBox="0 0 496 496" style="enable-background:new 0 0 496 496;" xml:space="preserve">
<g>
	<g>
		<g>
			<path d="M300.096,142.016v-8c0-22.056-17.944-40-40-40h-14.16l48.984-83.968l-13.832-8.064L227.4,94.016h-22.8L150.912,1.984
				l-13.832,8.064l48.984,83.968h-14.16c-22.056,0-40,17.944-40,40v8H0v352h496v-352H300.096z M147.904,134.016
				c0-13.232,10.768-24,24-24h88.184c13.232,0,24,10.768,24,24v8H147.904V134.016z M368,478.016H16v-320h352V478.016z M480,478.016
				h-96v-320h96V478.016z"/>
			<path d="M192,438.016c66.168,0,120-53.832,120-120s-53.832-120-120-120s-120,53.832-120,120S125.832,438.016,192,438.016z
				 M117.128,390.016h21.456l8.696,21.752C135.952,406.336,125.744,398.976,117.128,390.016z M216.608,418.952
				c-7.904,1.928-16.12,3.064-24.608,3.064c-8.488,0-16.704-1.136-24.608-3.064l-14.296-35.736l18.904-25.2h40l18.904,25.2
				L216.608,418.952z M168.856,320.472L192,297.328l23.144,23.144l-5.392,21.544h-35.504L168.856,320.472z M236.712,411.768
				l8.704-21.752h21.456C258.256,398.976,248.048,406.336,236.712,411.768z M279.504,374.016H244l-19.312-25.744l6.24-24.968
				l34.296-19.232l30.56,18.336C294.984,341.352,289.152,358.992,279.504,374.016z M283.064,267.888
				c5.936,10.744,9.928,22.664,11.752,35.288l-20.856-12.512L283.064,267.888z M272.224,251.904l-15.416,38.544l-31.432,17.624
				L200,282.704v-40.688l28.392-21.296C245.608,227.176,260.72,237.968,272.224,251.904z M192,214.016
				c5.704,0,11.256,0.584,16.712,1.472L192,228.016l-16.712-12.528C180.744,214.6,186.296,214.016,192,214.016z M155.608,220.72
				L184,242.016v40.688l-25.576,25.576l-30.12-15.064l-16.528-41.312C123.28,237.968,138.392,227.176,155.608,220.72z
				 M100.936,267.896l9.432,23.584l-21.912,17.528C89.736,294.208,94.088,280.28,100.936,267.896z M88.648,329.344l29.28-23.424
				l35.208,17.6l6.184,24.744L140,374.016h-35.496C96.04,360.84,90.424,345.672,88.648,329.344z"/>
			<path d="M432,262.016c22.056,0,40-17.944,40-40c0-22.056-17.944-40-40-40c-22.056,0-40,17.944-40,40
				C392,244.072,409.944,262.016,432,262.016z M432,198.016c13.232,0,24,10.768,24,24s-10.768,24-24,24s-24-10.768-24-24
				S418.768,198.016,432,198.016z"/>
			<path d="M432,358.016c22.056,0,40-17.944,40-40c0-22.056-17.944-40-40-40c-22.056,0-40,17.944-40,40
				C392,340.072,409.944,358.016,432,358.016z M432,294.016c13.232,0,24,10.768,24,24s-10.768,24-24,24s-24-10.768-24-24
				S418.768,294.016,432,294.016z"/>
			<path d="M432,454.016c22.056,0,40-17.944,40-40c0-22.056-17.944-40-40-40c-22.056,0-40,17.944-40,40
				C392,436.072,409.944,454.016,432,454.016z M432,390.016c13.232,0,24,10.768,24,24s-10.768,24-24,24s-24-10.768-24-24
				S418.768,390.016,432,390.016z"/>
			<path d="M72,462.016h240c22.056,0,40-17.944,40-40v-208c0-22.056-17.944-40-40-40H72c-22.056,0-40,17.944-40,40v208
				C32,444.072,49.944,462.016,72,462.016z M48,214.016c0-13.232,10.768-24,24-24h240c13.232,0,24,10.768,24,24v208
				c0,13.232-10.768,24-24,24H72c-13.232,0-24-10.768-24-24V214.016z"/>
		</g>
	</g>
</g>
<g>
</g>
<g>
</g>
<g>
</g>
<g>
</g>
<g>
</g>
<g>
</g>
<g>
</g>
<g>
</g>
<g>
</g>
<g>
</g>
<g>
</g>
<g>
</g>
<g>
</g>
<g>
</g>
<g>
</g>
</svg>
