<?xml version="1.0" encoding="iso-8859-1"?>
<!-- Generator: Adobe Illustrator 19.0.0, SVG Export Plug-In . SVG Version: 6.00 Build 0)  -->
<svg version="1.1" id="Layer_1" xmlns="http://www.w3.org/2000/svg" xmlns:xlink="http://www.w3.org/1999/xlink" x="0px" y="0px"
	 viewBox="0 0 496.2 496.2" style="enable-background:new 0 0 496.2 496.2;" xml:space="preserve">
<g>
	<g>
		<g>
			<rect x="16.1" y="216.2" width="16" height="16"/>
			<rect x="16.1" y="248.2" width="16" height="16"/>
			<rect x="32.1" y="232.2" width="16" height="16"/>
			<rect x="0.1" y="232.2" width="16" height="16"/>
			<rect x="200.1" y="40.2" width="16" height="16"/>
			<rect x="200.1" y="72.2" width="16" height="16"/>
			<rect x="216.1" y="56.2" width="16" height="16"/>
			<rect x="184.1" y="56.2" width="16" height="16"/>
			<path d="M492.716,347.232l-9.608-33.624c-2.928-10.248-12.424-17.408-23.08-17.408H448.1V0.2h-16v40H305.132L304.1,0l-16,0.408
				l7.496,292.248l-0.776-0.904l-27.144-54.288L240.1,251.256V304.2L93.636,354.416l-0.336-0.288l-0.496,0.576L48.748,369.8
				C19.644,379.776,0.1,407.144,0.1,437.912v2.288c0,22.056,17.944,40,40,40h24v16h16v-16h16v16h16v-16h16v16h16v-16h240v16h16v-16
				h16v16h16v-16h16v16h16v-16.552c3-0.616,5.88-1.752,8.472-3.48l12.84-8.56c6.696-4.464,10.688-11.928,10.688-19.968V371.4
				C496.1,363.24,494.956,355.104,492.716,347.232z M432.1,56.2v16h-16v16h16v16H306.772l-0.408-16H400.1v-16h-94.152l-0.408-16
				H432.1z M432.1,120.2v182.112l-2.64,5.288c-11.296,22.576-33.992,36.6-59.224,36.6c-19.352,0-37.68-8.432-50.272-23.12
				l-7.864-9.168L307.18,120.2H432.1z M256.1,261.144l4.424-2.208L276.86,291.6l-20.76,7.112V261.144z M220.628,327.792
				L338.948,432.2h-39.856l-108.56-94.088L220.628,327.792z M173.012,344.12l101.64,88.08H249.1l-93.92-81.968L173.012,344.12z
				 M137.708,356.224l87.056,75.976h-40.128l-76.88-65.712L137.708,356.224z M53.932,384.944l36.256-12.432l69.84,59.688H16.548
				C18.764,410.664,33.132,392.072,53.932,384.944z M476.54,454.296l-12.84,8.56c-1.328,0.88-2.856,1.344-4.44,1.344H40.1
				c-10.416,0-19.216-6.712-22.528-16h462.456C479.86,450.656,478.612,452.912,476.54,454.296z M480.1,432.2H363.124
				L238.028,321.824l47.528-16.296l22.248,25.96c15.648,18.248,38.4,28.712,62.432,28.712c31.336,0,59.512-17.416,73.536-45.448
				l1.272-2.552h3.056h11.928c3.552,0,6.72,2.384,7.688,5.8l9.608,33.624c1.848,6.44,2.776,13.096,2.776,19.776V432.2z"/>
			<rect x="24.1" y="24.2" width="16" height="16"/>
			<rect x="112.1" y="152.2" width="16" height="16"/>
			<rect x="112.1" y="312.2" width="16" height="16"/>
		</g>
	</g>
</g>
<g>
</g>
<g>
</g>
<g>
</g>
<g>
</g>
<g>
</g>
<g>
</g>
<g>
</g>
<g>
</g>
<g>
</g>
<g>
</g>
<g>
</g>
<g>
</g>
<g>
</g>
<g>
</g>
<g>
</g>
</svg>
