<?xml version="1.0" encoding="iso-8859-1"?>
<!-- Generator: Adobe Illustrator 19.0.0, SVG Export Plug-In . SVG Version: 6.00 Build 0)  -->
<svg version="1.1" id="Layer_1" xmlns="http://www.w3.org/2000/svg" xmlns:xlink="http://www.w3.org/1999/xlink" x="0px" y="0px"
	 viewBox="0 0 496 496" style="enable-background:new 0 0 496 496;" xml:space="preserve">
<g>
	<g>
		<g>
			<path d="M120,240c66.168,0,120-53.832,120-120S186.168,0,120,0S0,53.832,0,120S53.832,240,120,240z M45.128,192h21.456
				l8.696,21.752C63.952,208.32,53.744,200.96,45.128,192z M144.608,220.936C136.704,222.864,128.488,224,120,224
				c-8.488,0-16.704-1.136-24.608-3.064L81.096,185.2L100,160h40l18.904,25.2L144.608,220.936z M96.84,115.376L120,98l23.168,17.376
				L137.448,144H102.56L96.84,115.376z M164.712,213.752L173.416,192h21.456C186.256,200.96,176.048,208.32,164.712,213.752z
				 M207.496,176H172l-19.456-25.936l6.432-32.16l33.08-12.544l31.72,19.032C222.976,143.336,217.144,160.976,207.496,176z
				 M211.064,69.872c5.936,10.744,9.928,22.664,11.752,35.288L201.96,92.648L211.064,69.872z M200.224,53.888L185.48,90.744
				l-32.2,12.216L128,84V44l28.392-21.296C173.608,29.16,188.72,39.952,200.224,53.888z M120,16c5.704,0,11.256,0.584,16.712,1.472
				L120,30l-16.712-12.528C108.744,16.584,114.296,16,120,16z M83.608,22.704L112,44v40l-25.448,19.088L55.28,92.664L39.776,53.888
				C51.28,39.952,66.392,29.16,83.608,22.704z M28.936,69.88l9.432,23.584l-21.912,17.528C17.736,96.192,22.088,82.264,28.936,69.88
				z M16.648,131.328l30.6-24.48l33.816,11.272l6.392,31.944L68,176H32.504C24.04,162.824,18.424,147.656,16.648,131.328z"/>
			<path d="M465.376,224c-8.176,0-15.872,3.184-21.656,8.968L424,252.688V160c0-13.232-10.768-24-24-24
				c-3.12,0-6.104,0.6-8.84,1.688C388.384,127.504,379.048,120,368,120c-11.048,0-20.384,7.504-23.16,17.688
				C342.104,136.6,339.12,136,336,136c-11.048,0-20.384,7.504-23.16,17.688C310.104,152.6,307.12,152,304,152
				c-13.232,0-24,10.768-24,24v89.472c-2.512-0.896-5.184-1.472-8-1.472H144c-13.232,0-24,10.768-24,24v8H72
				c-39.704,0-72,32.296-72,72v88c0,13.232,10.768,24,24,24h8v16h16v-16h16v16h16v-16h16v16h16v-16h192v16h16v-16h16v16h16v-16h16
				v16h16v-16h8c13.232,0,24-10.768,24-24v-76.688l15.368-15.368l8-40l47.664-47.664c5.784-5.776,8.968-13.472,8.968-21.656
				C496,237.744,482.256,224,465.376,224z M136,288c0-4.416,3.584-8,8-8h128c4.416,0,8,3.584,8,8v8H136V288z M400,456
				c0,4.416-3.584,8-8,8H24c-4.416,0-8-3.584-8-8v-88c0-30.872,25.128-56,56-56h48v32h16v-32h144v32h16v-32h48
				c30.872,0,56,25.128,56,56V456z M475.72,264.968l-51.088,51.088l-8,40l-1.48,1.48C410.056,322.792,380.144,296,344,296h-48v-8
				V176c0-4.416,3.584-8,8-8c4.416,0,8,3.584,8,8v72h16v-88c0-4.416,3.584-8,8-8c4.416,0,8,3.584,8,8v88h16V144c0-4.416,3.584-8,8-8
				c4.416,0,8,3.584,8,8v104h16v-88c0-4.416,3.584-8,8-8c4.416,0,8,3.584,8,8v112h19.312l27.72-27.72
				c2.72-2.72,6.488-4.28,10.344-4.28c8.064,0,14.624,6.56,14.624,14.624C480,258.48,478.44,262.248,475.72,264.968z"/>
		</g>
	</g>
</g>
<g>
</g>
<g>
</g>
<g>
</g>
<g>
</g>
<g>
</g>
<g>
</g>
<g>
</g>
<g>
</g>
<g>
</g>
<g>
</g>
<g>
</g>
<g>
</g>
<g>
</g>
<g>
</g>
<g>
</g>
</svg>
