<?xml version="1.0" encoding="iso-8859-1"?>
<!-- Generator: Adobe Illustrator 19.0.0, SVG Export Plug-In . SVG Version: 6.00 Build 0)  -->
<svg version="1.1" id="Layer_1" xmlns="http://www.w3.org/2000/svg" xmlns:xlink="http://www.w3.org/1999/xlink" x="0px" y="0px"
	 viewBox="0 0 496 496" style="enable-background:new 0 0 496 496;" xml:space="preserve">
<g>
	<g>
		<g>
			<polygon points="104,224 144,224 144,240 120,240 120,256 144,256 144,272 104,272 104,288 160,288 160,208 104,208 			"/>
			<path d="M200,88V64c0-35.288-28.712-64-64-64h-16C84.712,0,56,28.712,56,64v24c0,22.608,10.496,42.792,26.84,56H72
				c-39.704,0-72,32.296-72,72v80c0,26.472,21.528,48,48,48v152h160v-56h88V112H195.8C198.472,104.48,200,96.424,200,88z M72,64
				c0-26.472,21.528-48,48-48h16c26.472,0,48,21.528,48,48v13.024c-1.96-1.648-3.464-3.848-4.12-6.464l-0.24-0.976
				C176.472,56.872,165.104,48,152,48h-48c-13.104,0-24.472,8.872-27.648,21.608l-0.224,0.928c-0.664,2.632-2.168,4.832-4.128,6.488
				V64z M72.432,94.664c9.32-2.888,16.744-10.384,19.216-20.272l0.224-0.928C93.272,67.888,98.256,64,104,64h48
				c5.744,0,10.728,3.888,12.12,9.44l0.24,0.976c2.464,9.872,9.888,17.36,19.208,20.248C180.256,122.408,156.616,144,128,144
				C99.384,144,75.744,122.4,72.432,94.664z M150.528,160c-3.312,9.288-12.112,16-22.528,16s-19.216-6.712-22.528-16H150.528z
				 M48,328c-17.648,0-32-14.352-32-32v-16h32V328z M48,264H16v-16h32V264z M120,480H64v-80h56V480z M192,480h-56v-80h56V480z
				 M192,384h-56v-24h-16v24H64v-56h128V384z M192,200v112H64V200H48v32H16v-16c0-30.872,25.128-56,56-56h16.808
				c3.72,18.232,19.872,32,39.192,32s35.472-13.768,39.192-32H184c30.872,0,56,25.128,56,56v16h-32v-32H192z M208,264v-16h32v16H208
				z M240,280v16c0,17.648-14.352,32-32,32v-48H240z M280,128v296h-72v-80c26.472,0,48-21.528,48-48v-80c0-39.704-32.296-72-72-72
				h-10.84c5.648-4.568,10.608-9.952,14.672-16H280z"/>
			<path d="M352,0v208h144V0H352z M480,192H368V16h112V192z"/>
			<path d="M384,496h112V352H384V496z M400,368h80v112h-80V368z"/>
			<rect x="416" y="40" width="16" height="96"/>
			<rect x="416" y="152" width="16" height="16"/>
			<rect x="432" y="384" width="16" height="48"/>
			<rect x="432" y="448" width="16" height="16"/>
			<rect x="120" y="80" width="16" height="24"/>
			<rect x="120" y="112" width="16" height="16"/>
		</g>
	</g>
</g>
<g>
</g>
<g>
</g>
<g>
</g>
<g>
</g>
<g>
</g>
<g>
</g>
<g>
</g>
<g>
</g>
<g>
</g>
<g>
</g>
<g>
</g>
<g>
</g>
<g>
</g>
<g>
</g>
<g>
</g>
</svg>
